{"title":"[ShepardTDS] K-Project Dual Audio [720p 8-bit x265 HEVC] 1-13 Co","uid":12828588,"size":3424230629,"categoryP":"video","categoryS":"tv_shows","magnet":"?xt=urn:btih:179a0dece133ad0a75b32f8d809afafc6377dc70&amp;dn=%5BShepardTDS%5D+K-Project+Dual+Audio+%5B720p+8-bit+x265+HEVC%5D+1-13+Co&amp;tr=udp%3A%2F%2Ftracker.leechers-paradise.org%3A6969&amp;tr=udp%3A%2F%2Fzer0day.ch%3A1337&amp;tr=udp%3A%2F%2Fopen.demonii.com%3A1337&amp;tr=udp%3A%2F%2Ftracker.coppersurfer.tk%3A6969&amp;tr=udp%3A%2F%2Fexodus.desync.com%3A6969","seeders":2,"leechers":1,"uploader":"ShepardTDS","files":16,"time":1448370927,"description":"Constant Quality encoding.\r\nVariable Bit rates\r\nED and OP included\r\nBlu-Ray Source\r\n\r\nGeneral\r\n\r\nFormat : Matroska\r\nFile size : 201 MiB\r\nDuration : 23mn 58s\r\nOverall bit rate : 1,175 Kbps-1,917 Kbps\r\nEncoded date : UTC 2015-11-22 22:52:42\r\nWriting application : mkvmerge v7.7.0 ('Six Voices') 32bit built on Feb 28 2015 23:23:00\r\nWriting library : libebml v1.3.1 + libmatroska v1.4.2\r\n\r\nVideo\r\nID : 1\r\nFormat : V_MPEGH/ISO/HEVC\r\nCodec ID : V_MPEGH/ISO/HEVC\r\nDuration : 23mn 58s\r\nBit rate : 768 Kbps-1,495 Kbps\r\nWidth : 1 280 pixels\r\nHeight : 720 pixels\r\nDisplay aspect ratio : 16:9\r\nFrame rate : 23.976 fps\r\nBits/(Pixel*Frame) : 0.035\r\nStream size : 132 MiB (65%)\r\n\r\nAudio #1\r\nID : 2\r\nFormat : AC-3\r\nFormat/Info : Audio Coding 3\r\nMode extension : CM (complete main)\r\nCodec ID : A_AC3\r\nDuration : 23mn 58s\r\nBit rate mode : Constant\r\nBit rate : 192 Kbps\r\nChannel(s) : 2 channels\r\nChannel positions : Front: L R\r\nSampling rate : 48.0 KHz\r\nBit depth : 16 bits\r\nCompression mode : Lossy\r\nStream size : 32.9 MiB (16%)\r\nLanguage : English\r\n\r\nAudio #2\r\nID : 3\r\nFormat : AC-3\r\nFormat/Info : Audio Coding 3\r\nMode extension : CM (complete main)\r\nCodec ID : A_AC3\r\nDuration : 23mn 58s\r\nBit rate mode : Constant\r\nBit rate : 192 Kbps\r\nChannel(s) : 2 channels\r\nChannel positions : Front: L R\r\nSampling rate : 48.0 KHz\r\nBit depth : 16 bits\r\nCompression mode : Lossy\r\nStream size : 32.9 MiB (16%)\r\nLanguage : Japanese\r\n\r\nText\r\nID : 4\r\nFormat : ASS\r\nCodec ID : S_TEXT/ASS\r\nCodec ID/Info : Advanced Sub Station Alpha\r\nCompression mode : Lossless\r\nTitle : English Subtitles\r\nLanguage : English","torrent":{"xt":"urn:btih:179a0dece133ad0a75b32f8d809afafc6377dc70","amp;dn":"%5BShepardTDS%5D+K-Project+Dual+Audio+%5B720p+8-bit+x265+HEVC%5D+1-13+Co","amp;tr":["udp%3A%2F%2Ftracker.leechers-paradise.org%3A6969","udp%3A%2F%2Fzer0day.ch%3A1337","udp%3A%2F%2Fopen.demonii.com%3A1337","udp%3A%2F%2Ftracker.coppersurfer.tk%3A6969","udp%3A%2F%2Fexodus.desync.com%3A6969"],"infoHash":"179a0dece133ad0a75b32f8d809afafc6377dc70","infoHashBuffer":{"type":"Buffer","data":[23,154,13,236,225,51,173,10,117,179,47,141,128,154,250,252,99,119,220,112]},"announce":[],"urlList":[]}}